<svg xmlns="http://www.w3.org/2000/svg" viewBox="0 0 840 200" width="840" height="200">
  <!-- Background -->
  <rect width="840" height="200" rx="12" fill="#0D1117"/>

  <!-- Logo: terminal with colored tabs + restore arrow -->
  <g transform="translate(32, 32)">
    <!-- Terminal body -->
    <rect width="120" height="100" rx="8" fill="#1E1E2E"/>
    <!-- Title bar -->
    <rect width="120" height="24" rx="8" fill="#2A2A3E"/>
    <rect y="16" width="120" height="8" fill="#2A2A3E"/>
    <!-- Tabs -->
    <rect x="6"  y="6" width="24" height="12" rx="3" fill="#4A9BD9"/>
    <rect x="34" y="6" width="24" height="12" rx="3" fill="#9B59B6"/>
    <rect x="62" y="6" width="24" height="12" rx="3" fill="#2ECC71"/>
    <rect x="90" y="6" width="24" height="12" rx="3" fill="#E67E22"/>
    <!-- Content lines -->
    <rect x="10" y="34" width="50" height="3" rx="1.5" fill="#4A9BD9" opacity="0.3"/>
    <rect x="10" y="42" width="70" height="3" rx="1.5" fill="#9B59B6" opacity="0.25"/>
    <rect x="10" y="50" width="40" height="3" rx="1.5" fill="#2ECC71" opacity="0.2"/>
    <rect x="10" y="58" width="60" height="3" rx="1.5" fill="#E67E22" opacity="0.25"/>
    <rect x="10" y="66" width="35" height="3" rx="1.5" fill="#4A9BD9" opacity="0.2"/>
    <!-- Restore arrow -->
    <circle cx="96" cy="78" r="20" fill="#0D1117" opacity="0.9"/>
    <path d="M96 64 A14 14 0 1 1 82 78" fill="none" stroke="#4A9BD9" stroke-width="3" stroke-linecap="round"/>
    <polygon points="84,70 82,79 91,77" fill="#4A9BD9"/>
  </g>

  <!-- Title -->
  <text x="180" y="72" font-family="'Segoe UI', Arial, sans-serif" font-size="32" fill="#E8E8F0" font-weight="700">claude-workspace-snapshot</text>

  <!-- One-liner -->
  <text x="180" y="102" font-family="'Segoe UI', Arial, sans-serif" font-size="16" fill="#8B8BA0">Never lose your Claude Code tabs again.</text>

  <!-- Badge row -->
  <g transform="translate(180, 120)">
    <!-- MIT badge -->
    <rect x="0" y="0" width="32" height="20" rx="3" fill="#555"/>
    <rect x="32" y="0" width="32" height="20" rx="3" fill="#4A9BD9"/>
    <rect x="32" y="0" width="1" height="20" fill="#555"/>
    <text x="16" y="14" font-family="'Segoe UI', Arial, sans-serif" font-size="11" fill="#fff" text-anchor="middle">MIT</text>
    <text x="48" y="14" font-family="'Segoe UI', Arial, sans-serif" font-size="10" fill="#fff" text-anchor="middle">v1.1</text>

    <!-- Claude Code badge -->
    <rect x="76" y="0" width="68" height="20" rx="3" fill="#555"/>
    <rect x="144" y="0" width="72" height="20" rx="3" fill="#8B5CF6"/>
    <rect x="144" y="0" width="1" height="20" fill="#555"/>
    <text x="110" y="14" font-family="'Segoe UI', Arial, sans-serif" font-size="11" fill="#fff" text-anchor="middle">Claude Code</text>
    <text x="180" y="14" font-family="'Segoe UI', Arial, sans-serif" font-size="11" fill="#fff" text-anchor="middle">compatible</text>

    <!-- Windows badge -->
    <rect x="228" y="0" width="54" height="20" rx="3" fill="#555"/>
    <rect x="282" y="0" width="56" height="20" rx="3" fill="#0078D6"/>
    <rect x="282" y="0" width="1" height="20" fill="#555"/>
    <text x="255" y="14" font-family="'Segoe UI', Arial, sans-serif" font-size="11" fill="#fff" text-anchor="middle">platform</text>
    <text x="310" y="14" font-family="'Segoe UI', Arial, sans-serif" font-size="11" fill="#fff" text-anchor="middle">Windows</text>
  </g>

  <!-- Subtle bottom accent line -->
  <rect x="32" y="170" width="776" height="1" fill="#4A9BD9" opacity="0.15"/>
</svg>
